<svg
    id="logo"
    class="left flex"
    xmlns="http://www.w3.org/2000/svg"
    width="75"
    height="75"
    viewBox="0 0 16 16"
>
    <!-- Define Gradient for Hover -->
    <defs>
        <linearGradient id="defaultGradient" x1="0%" y1="0%" x2="100%" y2="100%">
            <stop offset="0%" style="stop-color:#4CAF50;stop-opacity:1"></stop>
            <stop offset="100%" style="stop-color:#2196F3;stop-opacity:1"></stop>
        </linearGradient>
        <linearGradient id="hoverGradient" x1="0%" y1="0%" x2="100%" y2="100%">
            <stop offset="0%" style="stop-color:#FF5722;stop-opacity:1"></stop>
            <stop offset="100%" style="stop-color:#FFC107;stop-opacity:1"></stop>
        </linearGradient>
    </defs>

    <!-- Brackets with default gradient -->
    <path
        class="gradient"
        fill="url(#defaultGradient)"
        d="M2.1 3.1c0.2 1.3 0.4 1.6 0.4 2.9 0 0.8-1.5 1.5-1.5 1.5v1c0 0 1.5 0.7 1.5 1.5 0 1.3-0.2 1.6-0.4 2.9-0.3 2.1 0.8 3.1 1.8 3.1s2.1 0 2.1 0v-2c0 0-1.8 0.2-1.8-1 0-0.9 0.2-0.9 0.4-2.9 0.1-0.9-0.5-1.6-1.1-2.1 0.6-0.5 1.2-1.1 1.1-2-0.3-2-0.4-2-0.4-2.9 0-1.2 1.8-1.1 1.8-1.1v-2c0 0-1 0-2.1 0s-2.1 1-1.8 3.1z"
    ></path>
    <path
        class="gradient"
        fill="url(#defaultGradient)"
        d="M13.9 3.1c-0.2 1.3-0.4 1.6-0.4 2.9 0 0.8 1.5 1.5 1.5 1.5v1c0 0-1.5 0.7-1.5 1.5 0 1.3 0.2 1.6 0.4 2.9 0.3 2.1-0.8 3.1-1.8 3.1s-2.1 0-2.1 0v-2c0 0 1.8 0.2 1.8-1 0-0.9-0.2-0.9-0.4-2.9-0.1-0.9 0.5-1.6 1.1-2.1-0.6-0.5-1.2-1.1-1.1-2 0.2-2 0.4-2 0.4-2.9 0-1.2-1.8-1.1-1.8-1.1v-2c0 0 1 0 2.1 0s2.1 1 1.8 3.1z"
    ></path>

    <!-- Rocket Emoji -->
    <text x="8" y="8" font-size="10" text-anchor="middle" dominant-baseline="middle">🚀</text>
</svg>